<svg width="202" height="36" viewBox="0 0 202 36" fill="none" xmlns="http://www.w3.org/2000/svg">
<path d="M39.848 1.016V1.976C38.76 2.008 37.944 2.136 37.4 2.36C36.856 2.552 36.488 2.936 36.296 3.512C36.136 4.056 36.056 4.92 36.056 6.104V29.912C36.056 31.064 36.136 31.928 36.296 32.504C36.488 33.08 36.856 33.464 37.4 33.656C37.944 33.848 38.76 33.976 39.848 34.04V35C39.048 34.936 38.056 34.904 36.872 34.904C35.688 34.872 34.488 34.856 33.272 34.856C31.928 34.856 30.664 34.872 29.48 34.904C28.296 34.904 27.352 34.936 26.648 35V34.04C27.736 33.976 28.552 33.848 29.096 33.656C29.672 33.464 30.056 33.08 30.248 32.504C30.44 31.928 30.536 31.064 30.536 29.912V3.656L30.776 3.752L18.968 35.192H18.2L5.816 4.088V28.664C5.816 30.008 5.912 31.064 6.104 31.832C6.296 32.568 6.712 33.096 7.352 33.416C7.992 33.736 8.968 33.944 10.28 34.04V35C9.672 34.936 8.888 34.904 7.928 34.904C7 34.872 6.12 34.856 5.288 34.856C4.488 34.856 3.688 34.872 2.888 34.904C2.088 34.904 1.432 34.936 0.92 35V34.04C1.976 33.944 2.776 33.752 3.32 33.464C3.864 33.144 4.232 32.616 4.424 31.88C4.616 31.144 4.712 30.136 4.712 28.856V6.104C4.712 4.92 4.616 4.056 4.424 3.512C4.232 2.936 3.864 2.552 3.32 2.36C2.776 2.136 1.976 2.008 0.92 1.976V1.016C1.432 1.048 2.088 1.08 2.888 1.112C3.688 1.144 4.488 1.16 5.288 1.16C6.216 1.16 7.144 1.144 8.072 1.112C9.032 1.08 9.848 1.048 10.52 1.016L21.128 28.28L20.216 28.904L30.632 1.16C31.048 1.16 31.48 1.16 31.928 1.16C32.376 1.16 32.824 1.16 33.272 1.16C34.488 1.16 35.688 1.144 36.872 1.112C38.056 1.08 39.048 1.048 39.848 1.016Z" fill="#8B4513"/>
<path d="M59.9431 0.343997C63.0791 0.343997 65.8311 1.032 68.1991 2.408C70.5991 3.784 72.4551 5.768 73.7671 8.36C75.0791 10.92 75.7351 14.04 75.7351 17.72C75.7351 21.304 75.0631 24.44 73.7191 27.128C72.3751 29.816 70.5031 31.912 68.1031 33.416C65.7031 34.92 62.9671 35.672 59.8951 35.672C56.7271 35.672 53.9591 34.984 51.5911 33.608C49.2231 32.232 47.3831 30.248 46.0711 27.656C44.7591 25.064 44.1031 21.944 44.1031 18.296C44.1031 14.712 44.7751 11.576 46.1191 8.888C47.4951 6.2 49.3671 4.104 51.7351 2.6C54.1031 1.096 56.8391 0.343997 59.9431 0.343997ZM59.7511 1.208C57.7671 1.208 56.0391 1.928 54.5671 3.368C53.0951 4.808 51.9591 6.792 51.1591 9.32C50.3591 11.848 49.9591 14.776 49.9591 18.104C49.9591 21.496 50.4071 24.456 51.3031 26.984C52.1991 29.48 53.4151 31.416 54.9511 32.792C56.4871 34.136 58.1991 34.808 60.0871 34.808C62.0711 34.808 63.7831 34.088 65.2231 32.648C66.6951 31.208 67.8311 29.224 68.6311 26.696C69.4631 24.136 69.8791 21.208 69.8791 17.912C69.8791 14.488 69.4151 11.528 68.4871 9.032C67.5911 6.536 66.3751 4.616 64.8391 3.272C63.3351 1.896 61.6391 1.208 59.7511 1.208ZM93.2551 1.016C99.1751 1.016 103.575 2.456 106.455 5.336C109.335 8.184 110.775 12.28 110.775 17.624C110.775 21.112 110.071 24.168 108.663 26.792C107.255 29.384 105.207 31.4 102.519 32.84C99.8631 34.28 96.6311 35 92.8231 35C92.3431 35 91.6871 34.984 90.8551 34.952C90.0551 34.92 89.2231 34.904 88.3591 34.904C87.4951 34.872 86.7111 34.856 86.0071 34.856C84.7911 34.856 83.5911 34.872 82.4071 34.904C81.2551 34.904 80.3111 34.936 79.5751 35V34.04C80.6631 33.976 81.4791 33.848 82.0231 33.656C82.5671 33.464 82.9191 33.08 83.0791 32.504C83.2711 31.928 83.3671 31.064 83.3671 29.912V6.104C83.3671 4.92 83.2711 4.056 83.0791 3.512C82.9191 2.936 82.5511 2.552 81.9751 2.36C81.4311 2.136 80.6311 2.008 79.5751 1.976V1.016C80.3111 1.048 81.2551 1.096 82.4071 1.16C83.5911 1.192 84.7591 1.192 85.9111 1.16C87.0631 1.128 88.3431 1.096 89.7511 1.064C91.1911 1.032 92.3591 1.016 93.2551 1.016ZM92.4391 1.88C90.9671 1.88 90.0071 2.152 89.5591 2.696C89.1111 3.24 88.8871 4.344 88.8871 6.008V30.008C88.8871 31.672 89.1111 32.776 89.5591 33.32C90.0391 33.864 91.0151 34.136 92.4871 34.136C95.7191 34.136 98.2311 33.512 100.023 32.264C101.815 30.984 103.079 29.128 103.815 26.696C104.551 24.264 104.919 21.304 104.919 17.816C104.919 14.232 104.519 11.272 103.719 8.936C102.919 6.568 101.607 4.808 99.7831 3.656C97.9911 2.472 95.5431 1.88 92.4391 1.88ZM139.259 1.016C139.131 2.232 139.035 3.416 138.971 4.568C138.939 5.688 138.923 6.552 138.923 7.16C138.923 7.768 138.939 8.344 138.971 8.888C139.003 9.432 139.035 9.88 139.067 10.232H137.963C137.739 8.184 137.387 6.568 136.907 5.384C136.459 4.2 135.771 3.368 134.843 2.888C133.947 2.376 132.683 2.12 131.051 2.12H127.739C126.715 2.12 125.931 2.216 125.387 2.408C124.875 2.568 124.523 2.92 124.331 3.464C124.139 3.976 124.043 4.792 124.043 5.912V30.104C124.043 31.192 124.139 32.008 124.331 32.552C124.523 33.096 124.875 33.464 125.387 33.656C125.931 33.816 126.715 33.896 127.739 33.896H130.859C132.683 33.896 134.123 33.608 135.179 33.032C136.267 32.456 137.083 31.512 137.627 30.2C138.203 28.888 138.635 27.096 138.923 24.824H140.027C139.931 25.752 139.883 26.968 139.883 28.472C139.883 29.112 139.899 30.04 139.931 31.256C139.995 32.472 140.091 33.72 140.219 35C138.587 34.936 136.747 34.904 134.699 34.904C132.651 34.872 130.827 34.856 129.227 34.856C128.491 34.856 127.547 34.856 126.395 34.856C125.243 34.856 123.995 34.872 122.651 34.904C121.339 34.904 119.995 34.92 118.619 34.952C117.275 34.952 115.979 34.968 114.731 35V34.04C115.819 33.976 116.635 33.848 117.179 33.656C117.723 33.464 118.075 33.08 118.235 32.504C118.427 31.928 118.523 31.064 118.523 29.912V6.104C118.523 4.92 118.427 4.056 118.235 3.512C118.075 2.936 117.707 2.552 117.131 2.36C116.587 2.136 115.787 2.008 114.731 1.976V1.016C115.979 1.048 117.275 1.08 118.619 1.112C119.995 1.112 121.339 1.128 122.651 1.16C123.995 1.16 125.243 1.16 126.395 1.16C127.547 1.16 128.491 1.16 129.227 1.16C130.699 1.16 132.363 1.16 134.219 1.16C136.107 1.128 137.787 1.08 139.259 1.016ZM131.291 17.432C131.291 17.432 131.291 17.592 131.291 17.912C131.291 18.232 131.291 18.392 131.291 18.392H122.603C122.603 18.392 122.603 18.232 122.603 17.912C122.603 17.592 122.603 17.432 122.603 17.432H131.291ZM132.683 11.096C132.555 12.92 132.491 14.312 132.491 15.272C132.523 16.232 132.539 17.112 132.539 17.912C132.539 18.712 132.555 19.592 132.587 20.552C132.619 21.512 132.699 22.904 132.827 24.728H131.723C131.563 23.672 131.355 22.664 131.099 21.704C130.843 20.712 130.379 19.912 129.707 19.304C129.067 18.696 128.059 18.392 126.683 18.392V17.432C127.707 17.432 128.507 17.224 129.083 16.808C129.691 16.392 130.155 15.848 130.475 15.176C130.795 14.504 131.019 13.816 131.147 13.112C131.307 12.376 131.451 11.704 131.579 11.096H132.683ZM173.592 1.016V1.976C172.952 2.136 172.264 2.568 171.528 3.272C170.824 3.976 170.168 5.112 169.56 6.68L158.664 35.192C158.536 35.192 158.408 35.192 158.28 35.192C158.152 35.192 158.008 35.192 157.848 35.192C157.72 35.192 157.592 35.192 157.464 35.192C157.336 35.192 157.208 35.192 157.08 35.192L145.176 5.048C144.696 3.864 144.168 3.064 143.592 2.648C143.016 2.232 142.472 2.008 141.96 1.976V1.016C142.696 1.048 143.592 1.08 144.648 1.112C145.736 1.144 146.792 1.16 147.816 1.16C149.128 1.16 150.36 1.144 151.512 1.112C152.696 1.08 153.64 1.048 154.344 1.016V1.976C153.288 2.008 152.472 2.136 151.896 2.36C151.32 2.584 151 2.984 150.936 3.56C150.904 4.104 151.096 4.92 151.512 6.008L160.392 29.192L159.528 30.152L167.304 9.704C168.04 7.752 168.408 6.232 168.408 5.144C168.408 4.024 168.056 3.224 167.352 2.744C166.648 2.264 165.624 2.008 164.28 1.976V1.016C165.272 1.048 166.248 1.08 167.208 1.112C168.168 1.144 169.08 1.16 169.944 1.16C170.744 1.16 171.432 1.144 172.008 1.112C172.584 1.08 173.112 1.048 173.592 1.016ZM186.177 0.823999L197.889 30.968C198.337 32.152 198.849 32.952 199.425 33.368C200.033 33.784 200.593 34.008 201.105 34.04V35C200.337 34.936 199.425 34.904 198.369 34.904C197.345 34.872 196.305 34.856 195.249 34.856C193.905 34.856 192.657 34.872 191.505 34.904C190.353 34.904 189.425 34.936 188.721 35V34.04C190.353 33.976 191.377 33.704 191.793 33.224C192.241 32.712 192.145 31.64 191.505 30.008L182.865 6.68L183.633 5.816L175.665 26.648C175.089 28.088 174.737 29.288 174.609 30.248C174.513 31.208 174.593 31.96 174.849 32.504C175.137 33.048 175.617 33.432 176.289 33.656C176.961 33.88 177.793 34.008 178.785 34.04V35C177.825 34.936 176.849 34.904 175.857 34.904C174.897 34.872 173.985 34.856 173.121 34.856C172.353 34.856 171.665 34.872 171.057 34.904C170.481 34.904 169.953 34.936 169.473 35V34.04C170.145 33.88 170.817 33.48 171.489 32.84C172.161 32.2 172.801 31.112 173.409 29.576L184.545 0.823999C184.801 0.823999 185.073 0.823999 185.361 0.823999C185.649 0.823999 185.921 0.823999 186.177 0.823999ZM191.217 21.176V22.136H176.913L177.393 21.176H191.217Z" fill="#3E3E3E"/>
</svg>
