<svg width="201" height="36" viewBox="0 0 201 36" fill="none" xmlns="http://www.w3.org/2000/svg">
<path d="M39.848 1.016V1.976C38.76 2.008 37.944 2.136 37.4 2.36C36.856 2.552 36.488 2.936 36.296 3.512C36.136 4.056 36.056 4.92 36.056 6.104V29.912C36.056 31.064 36.136 31.928 36.296 32.504C36.488 33.08 36.856 33.464 37.4 33.656C37.944 33.848 38.76 33.976 39.848 34.04V35C39.048 34.936 38.056 34.904 36.872 34.904C35.688 34.872 34.488 34.856 33.272 34.856C31.928 34.856 30.664 34.872 29.48 34.904C28.296 34.904 27.352 34.936 26.648 35V34.04C27.736 33.976 28.552 33.848 29.096 33.656C29.672 33.464 30.056 33.08 30.248 32.504C30.44 31.928 30.536 31.064 30.536 29.912V3.656L30.776 3.752L18.968 35.192H18.2L5.816 4.088V28.664C5.816 30.008 5.912 31.064 6.104 31.832C6.296 32.568 6.712 33.096 7.352 33.416C7.992 33.736 8.968 33.944 10.28 34.04V35C9.672 34.936 8.888 34.904 7.928 34.904C7 34.872 6.12 34.856 5.288 34.856C4.488 34.856 3.688 34.872 2.888 34.904C2.088 34.904 1.432 34.936 0.92 35V34.04C1.976 33.944 2.776 33.752 3.32 33.464C3.864 33.144 4.232 32.616 4.424 31.88C4.616 31.144 4.712 30.136 4.712 28.856V6.104C4.712 4.92 4.616 4.056 4.424 3.512C4.232 2.936 3.864 2.552 3.32 2.36C2.776 2.136 1.976 2.008 0.92 1.976V1.016C1.432 1.048 2.088 1.08 2.888 1.112C3.688 1.144 4.488 1.16 5.288 1.16C6.216 1.16 7.144 1.144 8.072 1.112C9.032 1.08 9.848 1.048 10.52 1.016L21.128 28.28L20.216 28.904L30.632 1.16C31.048 1.16 31.48 1.16 31.928 1.16C32.376 1.16 32.824 1.16 33.272 1.16C34.488 1.16 35.688 1.144 36.872 1.112C38.056 1.08 39.048 1.048 39.848 1.016Z" fill="#8B4513"/>
<path d="M59.5681 0.343997C62.7041 0.343997 65.4561 1.032 67.8241 2.408C70.2241 3.784 72.0801 5.768 73.3921 8.36C74.7041 10.92 75.3601 14.04 75.3601 17.72C75.3601 21.304 74.6881 24.44 73.3441 27.128C72.0001 29.816 70.1281 31.912 67.7281 33.416C65.3281 34.92 62.5921 35.672 59.5201 35.672C56.3521 35.672 53.5841 34.984 51.2161 33.608C48.8481 32.232 47.0081 30.248 45.6961 27.656C44.3841 25.064 43.7281 21.944 43.7281 18.296C43.7281 14.712 44.4001 11.576 45.7441 8.888C47.1201 6.2 48.9921 4.104 51.3601 2.6C53.7281 1.096 56.4641 0.343997 59.5681 0.343997ZM59.3761 1.208C57.3921 1.208 55.6641 1.928 54.1921 3.368C52.7201 4.808 51.5841 6.792 50.7841 9.32C49.9841 11.848 49.5841 14.776 49.5841 18.104C49.5841 21.496 50.0321 24.456 50.9281 26.984C51.8241 29.48 53.0401 31.416 54.5761 32.792C56.1121 34.136 57.8241 34.808 59.7121 34.808C61.6961 34.808 63.4081 34.088 64.8481 32.648C66.3201 31.208 67.4561 29.224 68.2561 26.696C69.0881 24.136 69.5041 21.208 69.5041 17.912C69.5041 14.488 69.0401 11.528 68.1121 9.032C67.2161 6.536 66.0001 4.616 64.4641 3.272C62.9601 1.896 61.2641 1.208 59.3761 1.208ZM92.8801 1.016C98.8001 1.016 103.2 2.456 106.08 5.336C108.96 8.184 110.4 12.28 110.4 17.624C110.4 21.112 109.696 24.168 108.288 26.792C106.88 29.384 104.832 31.4 102.144 32.84C99.4881 34.28 96.2561 35 92.4481 35C91.9681 35 91.3121 34.984 90.4801 34.952C89.6801 34.92 88.8481 34.904 87.9841 34.904C87.1201 34.872 86.3361 34.856 85.6321 34.856C84.4161 34.856 83.2161 34.872 82.0321 34.904C80.8801 34.904 79.9361 34.936 79.2001 35V34.04C80.2881 33.976 81.1041 33.848 81.6481 33.656C82.1921 33.464 82.5441 33.08 82.7041 32.504C82.8961 31.928 82.9921 31.064 82.9921 29.912V6.104C82.9921 4.92 82.8961 4.056 82.7041 3.512C82.5441 2.936 82.1761 2.552 81.6001 2.36C81.0561 2.136 80.2561 2.008 79.2001 1.976V1.016C79.9361 1.048 80.8801 1.096 82.0321 1.16C83.2161 1.192 84.3841 1.192 85.5361 1.16C86.6881 1.128 87.9681 1.096 89.3761 1.064C90.8161 1.032 91.9841 1.016 92.8801 1.016ZM92.0641 1.88C90.5921 1.88 89.6321 2.152 89.1841 2.696C88.7361 3.24 88.5121 4.344 88.5121 6.008V30.008C88.5121 31.672 88.7361 32.776 89.1841 33.32C89.6641 33.864 90.6401 34.136 92.1121 34.136C95.3441 34.136 97.8561 33.512 99.6481 32.264C101.44 30.984 102.704 29.128 103.44 26.696C104.176 24.264 104.544 21.304 104.544 17.816C104.544 14.232 104.144 11.272 103.344 8.936C102.544 6.568 101.232 4.808 99.4081 3.656C97.6161 2.472 95.1681 1.88 92.0641 1.88ZM138.884 1.016C138.756 2.232 138.66 3.416 138.596 4.568C138.564 5.688 138.548 6.552 138.548 7.16C138.548 7.768 138.564 8.344 138.596 8.888C138.628 9.432 138.66 9.88 138.692 10.232H137.588C137.364 8.184 137.012 6.568 136.532 5.384C136.084 4.2 135.396 3.368 134.468 2.888C133.572 2.376 132.308 2.12 130.676 2.12H127.364C126.34 2.12 125.556 2.216 125.012 2.408C124.5 2.568 124.148 2.92 123.956 3.464C123.764 3.976 123.668 4.792 123.668 5.912V30.104C123.668 31.192 123.764 32.008 123.956 32.552C124.148 33.096 124.5 33.464 125.012 33.656C125.556 33.816 126.34 33.896 127.364 33.896H130.484C132.308 33.896 133.748 33.608 134.804 33.032C135.892 32.456 136.708 31.512 137.252 30.2C137.828 28.888 138.26 27.096 138.548 24.824H139.652C139.556 25.752 139.508 26.968 139.508 28.472C139.508 29.112 139.524 30.04 139.556 31.256C139.62 32.472 139.716 33.72 139.844 35C138.212 34.936 136.372 34.904 134.324 34.904C132.276 34.872 130.452 34.856 128.852 34.856C128.116 34.856 127.172 34.856 126.02 34.856C124.868 34.856 123.62 34.872 122.276 34.904C120.964 34.904 119.62 34.92 118.244 34.952C116.9 34.952 115.604 34.968 114.356 35V34.04C115.444 33.976 116.26 33.848 116.804 33.656C117.348 33.464 117.7 33.08 117.86 32.504C118.052 31.928 118.148 31.064 118.148 29.912V6.104C118.148 4.92 118.052 4.056 117.86 3.512C117.7 2.936 117.332 2.552 116.756 2.36C116.212 2.136 115.412 2.008 114.356 1.976V1.016C115.604 1.048 116.9 1.08 118.244 1.112C119.62 1.112 120.964 1.128 122.276 1.16C123.62 1.16 124.868 1.16 126.02 1.16C127.172 1.16 128.116 1.16 128.852 1.16C130.324 1.16 131.988 1.16 133.844 1.16C135.732 1.128 137.412 1.08 138.884 1.016ZM130.916 17.432C130.916 17.432 130.916 17.592 130.916 17.912C130.916 18.232 130.916 18.392 130.916 18.392H122.228C122.228 18.392 122.228 18.232 122.228 17.912C122.228 17.592 122.228 17.432 122.228 17.432H130.916ZM132.308 11.096C132.18 12.92 132.116 14.312 132.116 15.272C132.148 16.232 132.164 17.112 132.164 17.912C132.164 18.712 132.18 19.592 132.212 20.552C132.244 21.512 132.324 22.904 132.452 24.728H131.348C131.188 23.672 130.98 22.664 130.724 21.704C130.468 20.712 130.004 19.912 129.332 19.304C128.692 18.696 127.684 18.392 126.308 18.392V17.432C127.332 17.432 128.132 17.224 128.708 16.808C129.316 16.392 129.78 15.848 130.1 15.176C130.42 14.504 130.644 13.816 130.772 13.112C130.932 12.376 131.076 11.704 131.204 11.096H132.308ZM173.217 1.016V1.976C172.577 2.136 171.889 2.568 171.153 3.272C170.449 3.976 169.793 5.112 169.185 6.68L158.289 35.192C158.161 35.192 158.033 35.192 157.905 35.192C157.777 35.192 157.633 35.192 157.473 35.192C157.345 35.192 157.217 35.192 157.089 35.192C156.961 35.192 156.833 35.192 156.705 35.192L144.801 5.048C144.321 3.864 143.793 3.064 143.217 2.648C142.641 2.232 142.097 2.008 141.585 1.976V1.016C142.321 1.048 143.217 1.08 144.273 1.112C145.361 1.144 146.417 1.16 147.441 1.16C148.753 1.16 149.985 1.144 151.137 1.112C152.321 1.08 153.265 1.048 153.969 1.016V1.976C152.913 2.008 152.097 2.136 151.521 2.36C150.945 2.584 150.625 2.984 150.561 3.56C150.529 4.104 150.721 4.92 151.137 6.008L160.017 29.192L159.153 30.152L166.929 9.704C167.665 7.752 168.033 6.232 168.033 5.144C168.033 4.024 167.681 3.224 166.977 2.744C166.273 2.264 165.249 2.008 163.905 1.976V1.016C164.897 1.048 165.873 1.08 166.833 1.112C167.793 1.144 168.705 1.16 169.569 1.16C170.369 1.16 171.057 1.144 171.633 1.112C172.209 1.08 172.737 1.048 173.217 1.016ZM185.802 0.823999L197.514 30.968C197.962 32.152 198.474 32.952 199.05 33.368C199.658 33.784 200.218 34.008 200.73 34.04V35C199.962 34.936 199.05 34.904 197.994 34.904C196.97 34.872 195.93 34.856 194.874 34.856C193.53 34.856 192.282 34.872 191.13 34.904C189.978 34.904 189.05 34.936 188.346 35V34.04C189.978 33.976 191.002 33.704 191.418 33.224C191.866 32.712 191.77 31.64 191.13 30.008L182.49 6.68L183.258 5.816L175.29 26.648C174.714 28.088 174.362 29.288 174.234 30.248C174.138 31.208 174.218 31.96 174.474 32.504C174.762 33.048 175.242 33.432 175.914 33.656C176.586 33.88 177.418 34.008 178.41 34.04V35C177.45 34.936 176.474 34.904 175.482 34.904C174.522 34.872 173.61 34.856 172.746 34.856C171.978 34.856 171.29 34.872 170.682 34.904C170.106 34.904 169.578 34.936 169.098 35V34.04C169.77 33.88 170.442 33.48 171.114 32.84C171.786 32.2 172.426 31.112 173.034 29.576L184.17 0.823999C184.426 0.823999 184.698 0.823999 184.986 0.823999C185.274 0.823999 185.546 0.823999 185.802 0.823999ZM190.842 21.176V22.136H176.538L177.018 21.176H190.842Z" fill="white"/>
</svg>
