<svg width="40" height="35" viewBox="0 0 40 35" fill="none" xmlns="http://www.w3.org/2000/svg">
<path d="M39.848 0.0159998V0.975999C38.76 1.008 37.944 1.136 37.4 1.36C36.856 1.552 36.488 1.936 36.296 2.512C36.136 3.056 36.056 3.92 36.056 5.104V28.912C36.056 30.064 36.136 30.928 36.296 31.504C36.488 32.08 36.856 32.464 37.4 32.656C37.944 32.848 38.76 32.976 39.848 33.04V34C39.048 33.936 38.056 33.904 36.872 33.904C35.688 33.872 34.488 33.856 33.272 33.856C31.928 33.856 30.664 33.872 29.48 33.904C28.296 33.904 27.352 33.936 26.648 34V33.04C27.736 32.976 28.552 32.848 29.096 32.656C29.672 32.464 30.056 32.08 30.248 31.504C30.44 30.928 30.536 30.064 30.536 28.912V2.656L30.776 2.752L18.968 34.192H18.2L5.816 3.088V27.664C5.816 29.008 5.912 30.064 6.104 30.832C6.296 31.568 6.712 32.096 7.352 32.416C7.992 32.736 8.968 32.944 10.28 33.04V34C9.672 33.936 8.888 33.904 7.928 33.904C7 33.872 6.12 33.856 5.288 33.856C4.488 33.856 3.688 33.872 2.888 33.904C2.088 33.904 1.432 33.936 0.92 34V33.04C1.976 32.944 2.776 32.752 3.32 32.464C3.864 32.144 4.232 31.616 4.424 30.88C4.616 30.144 4.712 29.136 4.712 27.856V5.104C4.712 3.92 4.616 3.056 4.424 2.512C4.232 1.936 3.864 1.552 3.32 1.36C2.776 1.136 1.976 1.008 0.92 0.975999V0.0159998C1.432 0.0479994 2.088 0.079999 2.888 0.111999C3.688 0.143998 4.488 0.159998 5.288 0.159998C6.216 0.159998 7.144 0.143998 8.072 0.111999C9.032 0.079999 9.848 0.0479994 10.52 0.0159998L21.128 27.28L20.216 27.904L30.632 0.159998C31.048 0.159998 31.48 0.159998 31.928 0.159998C32.376 0.159998 32.824 0.159998 33.272 0.159998C34.488 0.159998 35.688 0.143998 36.872 0.111999C38.056 0.079999 39.048 0.0479994 39.848 0.0159998Z" fill="#8B4513"/>
</svg>
